<?xml version="1.0" standalone="no"?>
<!DOCTYPE svg PUBLIC "-//W3C//DTD SVG 20010904//EN"
 "http://www.w3.org/TR/2001/REC-SVG-20010904/DTD/svg10.dtd">
<svg version="1.0" xmlns="http://www.w3.org/2000/svg"
 width="192.000000pt" height="192.000000pt" viewBox="0 0 192.000000 192.000000"
 preserveAspectRatio="xMidYMid meet">
<metadata>
Created by potrace 1.11, written by Peter Selinger 2001-2013
</metadata>
<g transform="translate(0.000000,192.000000) scale(0.100000,-0.100000)"
fill="#000000" stroke="none">
<path d="M915 1696 c-22 -14 -43 -22 -47 -20 -5 3 -8 0 -8 -6 0 -6 -15 -18
-32 -26 -18 -8 -46 -23 -63 -34 -56 -36 -65 -41 -65 -33 0 4 -4 3 -8 -2 -15
-20 -114 -75 -124 -69 -7 4 -8 2 -4 -4 4 -7 1 -12 -7 -12 -8 0 -20 -7 -27 -15
-7 -8 -16 -13 -20 -10 -4 3 -10 -2 -14 -10 -3 -8 -15 -15 -26 -15 -11 0 -20
-4 -20 -8 0 -5 -18 -17 -40 -27 -22 -10 -40 -21 -40 -25 0 -3 -16 -12 -35 -19
-19 -7 -35 -18 -36 -24 0 -7 -2 -24 -4 -39 -2 -17 1 -28 8 -28 8 0 8 -3 2 -8
-14 -9 -14 -105 0 -114 7 -5 7 -8 -1 -8 -7 0 -10 -37 -8 -110 1 -70 -1 -108
-8 -104 -5 3 -4 -4 4 -15 11 -18 11 -23 -2 -31 -8 -5 -10 -10 -4 -10 8 0 12
-21 13 -55 0 -36 -3 -53 -10 -49 -6 3 -5 -4 3 -15 11 -18 11 -23 -2 -31 -9 -6
-11 -10 -3 -10 8 0 12 -13 11 -35 -1 -20 -5 -32 -11 -28 -6 4 -7 1 -1 -8 5 -8
10 -25 12 -39 2 -14 7 -27 13 -28 5 -2 6 -9 3 -14 -4 -6 -2 -8 4 -4 6 3 13 2
17 -4 4 -6 11 -7 17 -4 6 4 8 -1 4 -14 -4 -11 -2 -23 3 -27 6 -3 8 0 5 8 -8
21 11 30 26 12 7 -8 19 -15 26 -15 17 0 18 -16 2 -24 -7 -3 -3 -3 10 0 12 3
22 1 22 -5 0 -6 5 -11 11 -11 5 0 7 5 3 11 -7 12 49 -25 74 -49 8 -7 18 -10
23 -7 5 4 9 3 10 -2 2 -24 8 -46 15 -51 4 -4 4 1 1 10 -3 10 -2 20 3 23 6 4
10 1 10 -4 0 -6 7 -11 15 -11 8 0 15 -4 15 -10 0 -5 9 -10 21 -10 14 0 19 -5
16 -13 -3 -8 1 -14 9 -14 7 0 10 5 7 11 -4 6 1 5 11 -3 9 -8 14 -21 11 -30 -5
-13 -4 -14 6 -3 17 16 32 15 26 -1 -3 -8 1 -14 9 -14 7 0 10 5 7 11 -3 6 5 0
19 -14 13 -14 22 -29 20 -35 -3 -5 1 -4 9 2 21 20 31 15 18 -9 -11 -21 -11
-22 4 -10 18 15 41 7 30 -11 -4 -7 2 -5 12 3 17 14 18 13 12 -2 -4 -13 -2 -15
10 -11 8 3 18 2 22 -3 3 -5 18 -15 33 -21 22 -10 27 -9 32 4 4 8 12 13 19 10
8 -3 19 4 26 16 13 20 14 20 29 1 14 -18 14 -18 9 4 -3 12 -1 20 4 16 5 -3 9
0 9 5 0 6 6 11 14 11 7 0 19 7 26 15 7 8 20 14 29 13 9 -2 15 3 14 9 -2 7 0
12 5 12 21 -4 32 2 26 14 -4 6 2 4 13 -6 14 -12 23 -15 28 -7 3 6 3 9 -2 8 -4
-2 -8 2 -8 7 0 6 6 9 13 8 7 0 11 1 8 5 -5 4 51 52 61 52 1 0 0 -8 -3 -17 -5
-15 -3 -14 13 2 24 28 59 54 49 38 -4 -7 -2 -13 3 -13 6 0 11 6 11 13 0 18 31
34 60 31 14 -1 19 0 13 2 -7 3 -13 11 -13 16 0 6 3 8 7 5 3 -4 18 3 31 15 l25
23 -13 -24 c-9 -18 -9 -26 1 -35 9 -8 10 -8 5 1 -8 15 14 64 26 57 4 -3 6 -10
3 -15 -4 -5 -1 -9 5 -9 7 0 9 8 5 19 -8 26 11 36 25 14 11 -17 11 -17 6 0 -3
11 0 17 10 17 8 0 12 5 9 11 -4 6 0 9 11 7 10 -2 19 3 20 10 1 6 3 13 4 15 1
1 3 13 4 27 0 14 5 31 10 39 6 9 5 12 -1 8 -7 -5 -10 18 -9 68 1 42 -1 81 -5
87 -10 15 -116 18 -128 4 -5 -6 -8 -37 -7 -69 0 -31 -3 -57 -8 -57 -5 0 -3 -6
3 -13 8 -11 1 -19 -32 -38 -23 -13 -51 -29 -62 -36 -33 -20 -70 -36 -77 -35
-5 1 -8 -3 -8 -8 0 -6 -10 -15 -22 -20 -13 -6 -41 -22 -63 -35 -22 -14 -56
-33 -75 -43 -19 -9 -37 -20 -40 -23 -3 -3 -34 -22 -70 -41 -61 -33 -99 -40
-84 -16 4 7 2 8 -4 4 -12 -7 -122 50 -122 63 0 4 -6 8 -13 8 -19 0 -196 106
-191 115 3 4 -2 5 -10 2 -9 -3 -16 -1 -16 5 0 6 -3 10 -7 9 -13 -3 -63 25 -63
34 0 5 -5 6 -10 3 -6 -3 -13 1 -16 9 -3 9 -10 14 -14 11 -4 -3 -13 2 -20 10
-7 8 -9 15 -6 15 4 0 2 9 -4 19 -7 14 -7 22 0 26 6 4 7 12 3 18 -10 17 -11 47
-1 47 5 0 4 9 -2 20 -8 14 -8 20 0 20 6 0 8 5 5 10 -4 6 -1 18 6 26 10 12 9
13 -7 7 -16 -6 -17 -4 -7 9 7 8 10 18 6 22 -10 9 -11 46 -2 46 4 0 5 12 1 28
-9 36 -8 134 2 150 4 7 2 12 -5 12 -8 0 -8 4 1 15 7 8 8 15 3 15 -8 0 -8 15 0
92 1 9 3 15 6 13 2 -3 16 4 31 15 16 11 33 20 39 20 6 0 11 5 11 12 0 6 3 8 6
5 4 -4 19 2 34 13 17 12 36 18 47 14 15 -5 15 -4 3 5 -13 10 -8 15 13 12 4 0
7 4 7 10 0 5 4 8 9 4 6 -3 14 3 20 12 8 14 11 15 11 3 1 -10 4 -8 9 5 5 11 12
20 17 20 5 0 14 3 19 7 51 31 88 47 102 42 13 -4 14 -3 5 3 -10 8 -10 12 2 22
12 10 17 9 26 -6 10 -16 11 -16 6 0 -4 12 5 24 32 41 46 29 88 30 85 1 -1 -11
0 -14 3 -7 8 18 24 15 24 -5 0 -15 2 -16 10 -3 7 11 10 11 10 2 0 -7 4 -11 9
-7 5 3 12 1 15 -4 4 -5 1 -11 -6 -14 -7 -2 -4 -3 8 -1 14 2 25 -4 33 -19 6
-12 9 -14 7 -5 -4 15 -1 14 30 -4 18 -11 32 -24 29 -28 -3 -5 3 -7 12 -6 10 2
26 -6 36 -17 12 -14 17 -16 17 -6 0 9 3 10 8 3 4 -6 21 -19 39 -28 18 -9 37
-24 42 -33 8 -14 11 -15 11 -3 1 11 5 10 18 -6 10 -11 23 -19 30 -16 6 2 15
-3 18 -12 3 -9 10 -13 15 -10 5 3 9 0 9 -5 0 -6 -5 -11 -12 -11 -6 0 -8 -3 -5
-6 4 -4 14 -1 24 7 15 12 16 12 11 -2 -4 -9 -1 -16 8 -16 7 0 11 4 8 9 -3 4 2
5 11 2 13 -5 13 -9 3 -22 -9 -11 -9 -13 -1 -9 6 4 14 3 18 -3 3 -5 2 -10 -3
-10 -6 0 -8 -8 -5 -19 4 -16 -3 -18 -61 -20 -46 -1 -66 2 -66 10 0 7 -3 10 -6
6 -3 -3 -24 5 -45 19 -21 13 -43 24 -49 24 -5 0 -10 5 -10 10 0 6 -7 10 -15
10 -8 0 -15 5 -15 10 0 6 -8 10 -18 10 -10 0 -29 10 -42 23 -14 12 -27 21 -30
21 -10 -2 -50 19 -50 28 0 4 -7 8 -17 8 -9 0 -31 11 -49 25 l-32 25 -143 -81
c-79 -45 -160 -92 -181 -105 -21 -13 -38 -21 -38 -18 0 4 -11 -5 -24 -21 -13
-15 -23 -35 -21 -44 1 -9 -3 -22 -9 -30 -9 -12 -8 -13 3 -6 11 6 13 3 8 -15
-3 -13 -2 -31 3 -40 6 -11 4 -26 -6 -45 -11 -21 -11 -25 -1 -16 16 13 28 5 20
-15 -3 -8 0 -14 7 -14 6 0 8 5 4 12 -5 8 -2 9 12 4 10 -4 27 -9 38 -12 10 -2
25 -11 32 -21 13 -17 14 -17 7 1 -5 15 -3 17 8 10 16 -10 20 -11 50 -13 16 -1
19 -5 14 -18 -5 -15 -4 -16 6 -5 19 18 28 15 22 -10 -5 -22 -5 -22 9 -5 12 17
16 17 43 3 16 -8 32 -13 37 -10 4 3 8 0 8 -6 0 -7 8 -9 20 -5 14 4 22 1 26
-10 6 -13 8 -14 15 -3 5 7 9 8 9 2 0 -6 11 -10 25 -9 18 2 25 -2 25 -13 0 -15
2 -15 10 -2 8 12 10 12 11 -5 0 -11 3 -15 5 -8 5 11 13 11 52 -4 22 -8 42 -13
65 -15 9 -1 17 -6 17 -11 0 -5 9 -7 19 -4 13 3 18 1 14 -9 -6 -15 -53 -48 -53
-37 0 5 -4 3 -8 -3 -10 -14 -151 -94 -166 -94 -18 0 -66 24 -66 33 0 4 -7 7
-15 7 -8 0 -15 4 -15 10 0 5 -3 9 -7 8 -13 -3 -63 25 -63 34 0 5 -4 6 -10 3
-5 -3 -10 -1 -10 4 0 6 -7 11 -15 11 -8 0 -24 9 -36 21 -17 17 -35 21 -90 23
-50 2 -69 -1 -65 -9 2 -7 0 -18 -4 -26 -5 -8 -4 -19 2 -26 8 -9 7 -13 -2 -13
-9 0 -8 -5 3 -18 10 -10 14 -21 11 -25 -4 -4 4 -4 16 -2 12 2 20 1 16 -2 -7
-7 53 -37 68 -34 5 1 6 -5 3 -13 -4 -9 -1 -18 5 -22 7 -4 8 -3 4 4 -4 7 -2 12
3 12 6 0 11 -5 11 -11 0 -5 5 -7 10 -4 6 3 13 0 16 -9 3 -9 12 -12 22 -8 15 5
16 4 2 -13 -14 -17 -14 -18 6 -7 17 9 25 8 42 -8 12 -11 26 -20 33 -20 6 0 8
-7 5 -16 -5 -14 -4 -15 8 -5 9 7 17 8 20 2 3 -5 0 -12 -6 -15 -7 -2 -2 -4 12
-3 15 1 24 -3 23 -10 -2 -7 2 -13 7 -13 6 0 10 6 10 13 0 9 2 9 8 0 8 -13 62
-26 62 -14 0 3 15 15 33 25 19 10 24 11 14 3 -10 -8 -14 -18 -9 -21 6 -3 13 1
16 10 3 8 10 12 16 9 5 -3 7 0 4 8 -3 8 -1 18 5 22 6 3 11 -1 11 -9 0 -8 4
-18 10 -21 6 -3 7 1 4 10 -10 24 16 47 45 40 16 -3 21 -2 13 3 -10 7 -9 12 4
23 10 8 15 9 11 2 -4 -6 -3 -15 3 -18 6 -4 10 -3 9 2 -3 19 2 31 17 37 15 6
15 4 3 -10 -13 -16 -12 -16 8 -4 12 8 19 18 16 24 -4 5 1 7 11 3 10 -4 15 -3
11 3 -7 11 25 29 42 23 6 -2 15 1 19 8 5 8 3 9 -6 4 -9 -6 -11 -4 -6 4 5 7 10
10 13 7 3 -3 14 4 26 14 11 11 25 17 30 13 6 -3 7 -1 3 5 -4 7 -1 12 6 12 9 0
10 3 2 8 -6 4 -11 32 -11 62 -1 112 0 108 -40 119 -21 6 -42 11 -48 12 -5 0
-18 5 -28 11 -10 5 -26 11 -35 13 -48 9 -140 39 -161 52 -16 10 -21 11 -16 2
6 -9 3 -10 -11 -5 -10 5 -28 11 -39 14 -11 2 -26 9 -33 15 -7 5 -15 7 -19 4
-3 -3 -18 0 -33 8 -15 8 -30 11 -34 8 -3 -4 -6 -2 -6 3 0 5 -11 11 -26 12 -14
1 -35 7 -47 14 -12 7 -27 11 -34 10 -6 -1 -14 2 -18 7 -7 12 34 36 54 32 7 -1
10 2 7 7 -3 6 1 13 10 16 10 4 13 2 9 -7 -4 -6 2 -2 13 10 15 17 22 19 32 10
10 -9 11 -9 5 1 -10 18 25 43 49 36 11 -4 16 -2 12 4 -4 6 1 15 11 21 10 5 20
10 23 12 3 1 16 -4 30 -11 14 -8 29 -13 33 -12 5 1 6 -2 3 -7 -3 -5 6 -12 19
-15 14 -4 23 -11 19 -17 -3 -6 0 -9 7 -8 14 3 79 -27 89 -40 3 -4 21 -14 40
-24 19 -9 28 -17 20 -17 -9 0 -21 5 -26 10 -7 7 -11 6 -11 -3 0 -8 14 -14 36
-16 19 -1 39 -7 43 -14 6 -9 8 -9 8 1 0 6 5 12 11 12 6 0 9 -7 6 -15 -4 -8 -2
-17 4 -20 5 -4 9 -3 8 2 -4 23 3 31 29 31 15 0 30 -5 34 -12 6 -8 8 -7 8 2 0
7 5 10 10 7 6 -4 7 -11 4 -17 -4 -7 -2 -8 5 -4 6 4 9 12 6 17 -4 5 -2 9 4 9 5
0 13 -4 16 -10 3 -5 12 -10 18 -10 9 0 9 3 -1 8 -7 5 14 9 50 10 39 1 65 -3
70 -11 6 -9 8 -9 8 1 0 6 10 12 21 12 19 0 20 -2 8 -17 -13 -16 -12 -17 3 -4
17 13 54 76 39 67 -4 -3 -8 22 -8 54 0 37 4 57 10 53 6 -4 7 -1 1 8 -9 16 -10
20 -12 67 -1 21 -7 32 -17 32 -8 0 -15 5 -15 10 0 6 -7 10 -15 10 -8 0 -15 5
-15 12 0 6 -3 8 -7 5 -3 -4 -11 -3 -17 2 -6 5 -38 24 -71 41 -33 18 -66 37
-73 43 -15 12 -68 43 -102 59 -14 7 -27 15 -30 18 -3 3 -26 17 -52 30 -27 14
-48 28 -48 32 0 5 -9 8 -20 8 -11 0 -20 5 -20 11 0 5 -4 8 -9 5 -5 -4 -11 -2
-13 2 -1 5 -32 25 -68 45 l-66 36 -39 -23z"/>
<path d="M916 1525 c-11 -8 -16 -15 -10 -15 5 0 18 7 28 15 11 8 16 15 10 15
-5 0 -18 -7 -28 -15z"/>
<path d="M956 1523 c-6 -14 -5 -15 5 -6 7 7 10 15 7 18 -3 3 -9 -2 -12 -12z"/>
<path d="M1110 1442 c0 -5 7 -9 15 -9 8 0 12 4 9 9 -3 4 -9 8 -15 8 -5 0 -9
-4 -9 -8z"/>
<path d="M706 1397 c3 -10 9 -15 12 -12 3 3 0 11 -7 18 -10 9 -11 8 -5 -6z"/>
<path d="M1173 1395 c0 -8 4 -12 9 -9 5 3 6 10 3 15 -9 13 -12 11 -12 -6z"/>
<path d="M1237 1369 c7 -7 15 -10 18 -7 3 3 -2 9 -12 12 -14 6 -15 5 -6 -5z"/>
<path d="M1319 1313 c-13 -16 -12 -17 4 -4 9 7 17 15 17 17 0 8 -8 3 -21 -13z"/>
<path d="M500 1280 c-9 -6 -10 -10 -3 -10 6 0 15 5 18 10 8 12 4 12 -15 0z"/>
<path d="M455 1239 c-4 -6 -5 -12 -2 -15 2 -3 7 2 10 11 7 17 1 20 -8 4z"/>
<path d="M934 1228 c-4 -5 -3 -12 0 -15 3 -4 6 -1 6 6 0 7 4 10 9 6 5 -3 12
-2 15 3 3 5 -2 9 -10 9 -8 0 -17 -4 -20 -9z"/>
<path d="M986 1217 c3 -10 9 -15 12 -12 3 3 0 11 -7 18 -10 9 -11 8 -5 -6z"/>
<path d="M877 1203 c-4 -3 -7 -11 -7 -17 0 -6 5 -5 12 2 6 6 9 14 7 17 -3 3
-9 2 -12 -2z"/>
<path d="M1015 1190 c-3 -6 1 -7 9 -4 18 7 21 14 7 14 -6 0 -13 -4 -16 -10z"/>
<path d="M1107 1149 c7 -7 15 -10 18 -7 3 3 -2 9 -12 12 -14 6 -15 5 -6 -5z"/>
<path d="M1440 1076 c0 -2 7 -7 16 -10 8 -3 12 -2 9 4 -6 10 -25 14 -25 6z"/>
<path d="M1500 1076 c0 -2 7 -7 16 -10 8 -3 12 -2 9 4 -6 10 -25 14 -25 6z"/>
<path d="M633 955 c0 -8 4 -12 9 -9 5 3 6 10 3 15 -9 13 -12 11 -12 -6z"/>
<path d="M696 942 c-3 -4 4 -9 15 -9 23 -2 25 3 4 10 -8 4 -16 3 -19 -1z"/>
<path d="M955 860 c-3 -5 -1 -10 4 -10 6 0 11 5 11 10 0 6 -2 10 -4 10 -3 0
-8 -4 -11 -10z"/>
<path d="M1141 794 c0 -11 3 -14 6 -6 3 7 2 16 -1 19 -3 4 -6 -2 -5 -13z"/>
<path d="M616 662 c-2 -4 4 -8 15 -8 10 0 19 4 19 8 0 4 -6 8 -14 8 -8 0 -17
-4 -20 -8z"/>
<path d="M770 596 c0 -2 8 -10 18 -17 15 -13 16 -12 3 4 -13 16 -21 21 -21 13z"/>
<path d="M1095 569 c-4 -6 -5 -12 -2 -15 2 -3 7 2 10 11 7 17 1 20 -8 4z"/>
<path d="M956 478 c3 -5 10 -6 15 -3 13 9 11 12 -6 12 -8 0 -12 -4 -9 -9z"/>
<path d="M466 462 c-3 -5 1 -9 9 -9 8 0 12 4 9 9 -3 4 -7 8 -9 8 -2 0 -6 -4
-9 -8z"/>
<path d="M1260 365 c-7 -9 -8 -15 -2 -15 5 0 12 7 16 15 3 8 4 15 2 15 -2 0
-9 -7 -16 -15z"/>
<path d="M1175 300 c-3 -6 1 -7 9 -4 18 7 21 14 7 14 -6 0 -13 -4 -16 -10z"/>
<path d="M1116 282 c-3 -5 1 -9 9 -9 8 0 12 4 9 9 -3 4 -7 8 -9 8 -2 0 -6 -4
-9 -8z"/>
</g>
</svg>
